<!DOCTYPE svg PUBLIC "-//W3C//DTD SVG 1.1//EN" "http://www.w3.org/Graphics/SVG/1.1/DTD/svg11.dtd">
<!-- Uploaded to: SVG Repo, www.svgrepo.com, Transformed by: SVG Repo Mixer Tools -->
<svg width="100px" height="100px" viewBox="-51.2 -51.2 614.40 614.40" xmlns="http://www.w3.org/2000/svg" fill="#ffa500" transform="matrix(1, 0, 0, 1, 0, 0)rotate(-45)">
<g id="SVGRepo_bgCarrier" stroke-width="0"/>
<g id="SVGRepo_tracerCarrier" stroke-linecap="round" stroke-linejoin="round" stroke="#CCCCCC" stroke-width="2.048"/>
<g id="SVGRepo_iconCarrier">
<path fill="#000000" d="M159.4 26.23c-51.4.6-79.6 56.3-79.3 86.97 1.5 47.3 34.2 79.4 74.8 114.8 35.4 30.8 76.1 63.2 100.9 110 .1-.1.1-.2.2-.3.1.1.1.2.2.3 24.8-46.8 65.5-79.2 100.9-110 40.6-35.4 73.3-67.5 74.8-114.8.3-30.67-27.9-86.37-79.3-86.97-38-.5-82.6 25.7-96.6 67.7-14-42-58.6-68.2-96.6-67.7zM23 375v114h466V375H23zm18 18h430v78H334v-60H41v-18z"/>
</g>
</svg>